# xmcd CD database file
#
# Track frame offsets:
#	225
#	17148
#	28179
#	39524
#	55939
#	68285
#	86322
#	103098
#	116467
#	129177
#	143433
#	155730
#	170421
#	184573
#	199056
#
# Disc length: 2824 seconds
#
# Revision: 0
# Processed by: cddbd v1.4PL0 Copyright (c) Steve Scherf et al.
# Submitted via: CDex 1.50beta10
#
DISCID=ba0b050f
DTITLE=Carter Family - Together
DYEAR=1900
DGENRE=Country
TTITLE0=Will The Circle Be Unbroken
TTITLE1=Baby Ride Easy
TTITLE2=The Moon Just Turned Blue
TTITLE3=Maybelle
TTITLE4=Gotta Move On
TTITLE5=Come Back Home
TTITLE6=Southern Cross
TTITLE7=Goodbye Lover You're Free
TTITLE8=Leavin' Me On His Mind
TTITLE9=Maybe You're The One
TTITLE10=Right Back Loving You Again
TTITLE11=Clinch Mountian Love
TTITLE12=Womans Touch
TTITLE13=Will You Remember Me
TTITLE14=He's A Goner
EXTD=
EXTT0=
EXTT1=
EXTT2=
EXTT3=
EXTT4=
EXTT5=
EXTT6=
EXTT7=
EXTT8=
EXTT9=
EXTT10=
EXTT11=
EXTT12=
EXTT13=
EXTT14=
PLAYORDER=
